<?xml version="1.0" ?><svg viewBox="0 0 72 46.07" xmlns="http://www.w3.org/2000/svg"><title/><g data-name="레이어 2" id="레이어_2"><g data-name="레이어 1" id="레이어_1-2"><path d="M25.26,27.79H36.51a14.3,14.3,0,1,1-3.88-15.33,1.55,1.55,0,0,0,2.11,0l4.13-3.89a1.54,1.54,0,0,0,0-2.25A23,23,0,0,0,23.49,0,23,23,0,1,0,46,24.33c0-.15,0-5.29,0-5.29H25.26a1.54,1.54,0,0,0-1.54,1.54v5.66A1.54,1.54,0,0,0,25.26,27.79Z"/><path d="M65.12,19.56V14a1.35,1.35,0,0,0-1.35-1.35H59.12A1.35,1.35,0,0,0,57.76,14v5.53H52.24a1.35,1.35,0,0,0-1.35,1.35v4.65a1.35,1.35,0,0,0,1.35,1.35h5.53v5.53a1.35,1.35,0,0,0,1.35,1.35h4.65a1.35,1.35,0,0,0,1.35-1.35V26.91h5.53A1.35,1.35,0,0,0,72,25.56V20.91a1.35,1.35,0,0,0-1.35-1.35Z"/></g></g></svg>