<?xml version="1.0" encoding="utf-8"?>
<!-- Svg Vector Icons : http://www.onlinewebfonts.com/icon -->
<!DOCTYPE svg PUBLIC "-//W3C//DTD SVG 1.1//EN" "http://www.w3.org/Graphics/SVG/1.1/DTD/svg11.dtd">
<svg version="1.1" xmlns="http://www.w3.org/2000/svg" xmlns:xlink="http://www.w3.org/1999/xlink" x="0px" y="0px" viewBox="0 0 1000 1000" enable-background="new 0 0 1000 1000" xml:space="preserve">
<metadata> Svg Vector Icons : http://www.onlinewebfonts.com/icon </metadata>
<g><path d="M671.7,354c-143.3,86.5-276.9,155.5-364.6,198.6H167.5L10,392.6l71.4-24.4l131.9,50.2l41,20.4c29.3-23,64.4-50.1,103.1-78.9L186.9,84.4l0.2-1.1c-1-10.2-0.1-20.7,4.9-30.5c14.3-27.8,48.6-38.9,76.7-24.8L574,181c7.8,3.9,13.6,9.7,18.5,16.1C769.4,85.9,943.2,7.9,985.8,96.4C1009,144.5,940.7,191.6,671.7,354z M452,592.6c0.5-7.2,1.6-13.9,2.3-20.9c21.9-11.5,44.9-23.7,68.9-36.7c-2.5,18.7-4.6,37.9-5.7,57.6h178.7c-2.8-52.5-11.1-102.5-23.7-142.3c10.4-6.2,20.7-12.3,31.2-18.6c8.1-4.9,15.5-9.4,23.3-14.1c19.8,48.6,33.6,108.4,38.3,175.1h106.5c-13.1-79-60.5-146.3-126.6-186.1c24.4-14.8,46.7-28.5,67.4-41.3c82.2,62.3,135.5,160.7,135.5,271.7c0,184.3-146.3,334.1-329,340.5c-2.2,0.2-4.4,0.7-6.6,0.7c-0.8,0-1.6-0.2-2.4-0.3c-1.1,0-2.1,0.2-3.2,0.2c-179.1,0-325.6-138-339.8-313.4c31-14.5,82.3-39,146.8-72.1H452z M874.2,656.5H767c-1.8,88.3-18.5,166-44.7,222.7C807.2,838.6,867,754.9,874.2,656.5z M607.1,905.4c53,0,86.1-124.9,89.8-248.9H516.6C520.4,780.5,554.1,905.4,607.1,905.4z M501,883.6c-29.3-57-48.6-136.5-50.7-227.2H339.8C347.3,758.6,411.1,845,501,883.6z"/></g>
</svg>