<?xml version="1.0" ?><!DOCTYPE svg  PUBLIC '-//W3C//DTD SVG 1.1//EN'  'http://www.w3.org/Graphics/SVG/1.1/DTD/svg11.dtd'><svg enable-background="new 0 0 91 91" height="91px" id="Layer_1" version="1.1" viewBox="0 0 91 91" width="91px" xml:space="preserve" xmlns="http://www.w3.org/2000/svg" xmlns:xlink="http://www.w3.org/1999/xlink"><g><path d="M46.445,73.603c15.403,0,27.936-12.532,27.936-27.936c0-15.404-12.532-27.936-27.936-27.936   S18.51,30.263,18.51,45.667C18.51,61.07,31.042,73.603,46.445,73.603z M46.445,70.202c-0.479,0-0.955-0.018-1.428-0.045   c-1.938-2.843-3.496-6.229-4.618-9.967c1.865-0.197,3.764-0.308,5.692-0.308c1.855,0,3.686,0.092,5.478,0.273   c-1.128,3.766-2.696,7.175-4.651,10.034C46.761,70.193,46.604,70.202,46.445,70.202z M39.539,56.871   c-0.668-3.026-1.071-6.223-1.173-9.504h15.229c-0.103,3.27-0.502,6.455-1.166,9.473c-2.072-0.23-4.187-0.357-6.336-0.357   C43.871,56.482,41.684,56.623,39.539,56.871z M54.975,60.632c3.096,0.526,6.049,1.326,8.789,2.397   c-3.371,3.362-7.711,5.749-12.561,6.706C52.752,67.005,54.023,63.937,54.975,60.632z M55.799,57.327   c0.687-3.186,1.094-6.535,1.195-9.96h13.92c-0.332,4.834-2.064,9.29-4.804,12.955C62.918,58.972,59.451,57.968,55.799,57.327z    M56.994,43.967c-0.101-3.357-0.5-6.651-1.168-9.794c3.676-0.647,7.165-1.664,10.375-3.033c2.686,3.642,4.385,8.049,4.713,12.827   H56.994z M53.594,43.967H38.365c0.102-3.212,0.495-6.352,1.144-9.335c2.154,0.25,4.351,0.393,6.583,0.393   c2.158,0,4.283-0.129,6.365-0.361C53.102,37.637,53.493,40.767,53.594,43.967z M34.965,43.967H21.976   c0.322-4.68,1.961-9.001,4.55-12.597c2.994,1.226,6.225,2.152,9.617,2.764C35.469,37.288,35.066,40.596,34.965,43.967z    M34.965,47.367c0.102,3.439,0.512,6.803,1.203,10c-3.365,0.605-6.572,1.521-9.548,2.73c-2.644-3.623-4.318-7.993-4.645-12.73   H34.965z M28.932,62.827c2.53-0.948,5.242-1.66,8.065-2.154c0.922,3.194,2.145,6.166,3.627,8.825   C36.11,68.396,32.083,66.043,28.932,62.827z M63.885,28.431c-2.765,1.09-5.749,1.901-8.877,2.437   c-0.955-3.366-2.236-6.498-3.805-9.269C56.111,22.567,60.498,25.003,63.885,28.431z M46.924,21.144   c1.976,2.893,3.555,6.371,4.686,10.2c-1.805,0.185-3.648,0.28-5.518,0.28c-1.943,0-3.856-0.111-5.733-0.313   c1.126-3.803,2.695-7.257,4.655-10.135c0.475-0.027,0.951-0.045,1.432-0.045C46.605,21.132,46.764,21.142,46.924,21.144z    M40.617,21.837c-1.501,2.699-2.728,5.738-3.654,8.991c-2.856-0.502-5.598-1.228-8.151-2.194   C31.979,25.354,36.047,22.955,40.617,21.837z" fill="#010101"/></g></svg>